inDegrees=yes
name=ik_S56_A11_T02
DataType=double
version=3
OpenSimVersion=4.3-2021-08-27-4bc7ad9
endheader
time	pelvis_tilt	pelvis_list	pelvis_rotation	pelvis_tx	pelvis_ty	pelvis_tz	hip_flexion_r	hip_adduction_r	hip_rotation_r	knee_angle_r	knee_angle_r_beta	ankle_angle_r	subtalar_angle_r	mtp_angle_r	hip_flexion_l	hip_adduction_l	hip_rotation_l	knee_angle_l	knee_angle_l_beta	ankle_angle_l	subtalar_angle_l	mtp_angle_l	lumbar_extension	lumbar_bending	lumbar_rotation	arm_flex_r	arm_add_r	arm_rot_r	elbow_flex_r	pro_sup_r	wrist_flex_r	wrist_dev_r	arm_flex_l	arm_add_l	arm_rot_l	elbow_flex_l	pro_sup_l	wrist_flex_l	wrist_dev_l
8.559999999999906	1.699117446910114	-1.447049887468832	45.69618296775947	0	0.9399999999999999	0	36.53395962253261	-9.803666828579697	-9.454464179114602	42.316667953086	0.73856518425452	0	0	0	36.53395962253261	-9.803666828579697	-9.454464179114602	42.316667953086	0.73856518425452	0	0	0	0.6063434367178325	-2.150250585263838	10.98439732707259	100.0011959860139	-28.10900449174904	53.09985426178395	43.60554175807365	37.93024851338951	0	0	-0.04256408472451703	-9.617505039023369	5.763333399279051	10.57182112430879	104.1055631262922	0	0
8.579999999999906	1.708805788732611	-1.461487315892533	45.72338160325487	0	0.9399999999999999	0	36.53576851517993	-9.803811148272757	-9.454721646227458	42.31853421282063	0.7385977566315867	0	0	0	36.53576851517993	-9.803811148272757	-9.454721646227458	42.31853421282063	0.7385977566315867	0	0	0	0.6017080303667401	-2.166839433127096	10.92571981631888	100.0764302468205	-28.03515558736463	53.28949384362208	43.60690416100434	37.68670716974069	0	0	0.0103381525305453	-9.648708664737311	5.354285476430388	10.53721677768991	104.2476613708753	0	0
8.599999999999905	1.683412015602703	-1.478930718688297	45.72188301720286	0	0.9399999999999999	0	36.53977769366131	-9.804130945202779	-9.455292288323877	42.32266854569843	0.7386699143526778	0	0	0	36.53977769366131	-9.804130945202779	-9.455292288323877	42.32266854569843	0.7386699143526778	0	0	0	0.5705266783864568	-2.160383059403996	10.88292870838044	100.2926950331536	-27.78394073521889	53.93619489809006	43.2162801754354	37.02925579684294	0	0	0.06137218693147797	-9.618632049957222	5.29128059459972	10.537852697934	104.2688641362859	0	0
8.619999999999905	1.686547481753309	-1.485538059066587	45.74220576120616	0	0.9399999999999999	0	36.54195180889391	-9.804304376256839	-9.455601793552402	42.32490889231618	0.7387090157775434	0	0	0	36.54195180889391	-9.804304376256839	-9.455601793552402	42.32490889231618	0.7387090157775434	0	0	0	0.5675826821737464	-2.167112097277081	10.86311313645496	100.2915964083463	-27.78459419306404	53.91956686336084	43.18908587401793	36.88405694488168	0	0	0.09818409271525659	-9.66053155951376	5.119947420540024	10.5375353747292	104.3738054824505	0	0
8.639999999999905	1.660242259839045	-1.493370094010443	45.76897214626376	0	0.9399999999999999	0	36.54669455019113	-9.804682134101959	-9.456276423640857	42.32979839038093	0.7387943536175432	0	0	0	36.54669455019113	-9.804682134101959	-9.456276423640857	42.32979839038093	0.7387943536175432	0	0	0	0.5430467862333687	-2.153572416099228	10.8400805614422	100.3843557097245	-27.66475954487161	54.14285804454589	42.96602231178477	36.57908886363715	0	0	0.1435812181656161	-9.63103348161504	5.121284432431262	10.57106513116592	104.3496711507876	0	0
8.659999999999904	1.651539310682723	-1.482833261775223	45.75394274760338	0	0.9399999999999999	0	36.55083830977544	-9.8049423869831	-9.456789617881551	42.33423086415006	0.7388717148788227	0	0	0	36.55083830977544	-9.8049423869831	-9.456789617881551	42.33423086415006	0.7388717148788227	0	0	0	0.5445649404219693	-2.140205726675595	10.84403687642556	100.3805474366922	-27.65050533731573	54.15144208846946	42.92131828595487	36.44068730549807	0	0	0.1441863612646923	-9.65517277081099	5.198172091151716	10.57543810117556	104.2982773255025	0	0
8.679999999999904	1.638121816248677	-1.494069157467294	45.79193262190196	0	0.9399999999999999	0	36.55267992831401	-9.80508773702112	-9.457050071531421	42.3361431601183	0.7389050907397413	0	0	0	36.55267992831401	-9.80508773702112	-9.457050071531421	42.3361431601183	0.7389050907397413	0	0	0	0.526643788410661	-2.138181780093606	10.82059048967479	100.4516113221553	-27.44227793926791	53.91313915544348	42.74145699054738	36.56024850951415	0	0	0.1832209916328641	-9.682873223508301	5.31236012314492	10.63250352334162	104.1839448978811	0	0
8.699999999999903	1.629236958898921	-1.489268811002676	45.78245879247943	0	0.9399999999999999	0	36.5559562548264	-9.805347884513241	-9.457515321915713	42.33952442929142	0.7389641050197082	0	0	0	36.5559562548264	-9.805347884513241	-9.457515321915713	42.33952442929142	0.7389641050197082	0	0	0	0.5238737493634941	-2.128528737284149	10.82405448401066	100.4859498270226	-27.40130346894924	53.70090228309828	42.67871826934478	36.87450761715625	0	0	0.1791009884250594	-9.726893167797586	5.405306898137264	10.6620999872211	104.0557025468745	0	0
8.719999999999903	1.625214829596345	-1.489763373302911	45.77881501770301	0	0.9399999999999999	0	36.56899482894918	-9.805949426591354	-9.458928142689352	42.35384591446424	0.7392140620897496	0	0	0	36.56899482894918	-9.805949426591354	-9.458928142689352	42.35384591446424	0.7392140620897496	0	0	0	0.5202552709857983	-2.126138903424549	10.81447150903253	100.4790905404203	-27.39941671863224	53.70146337145627	42.70562061045818	36.94177353832454	0	0	0.1919044079500954	-9.750683360267132	5.401860969030697	10.62213599803738	104.0455764555098	0	0
8.739999999999903	1.588898035063718	-1.50055985634251	45.80028901899865	0	0.9399999999999999	0	36.58326141223382	-9.806735284717305	-9.460603666390163	42.36924122367562	0.7394827609248509	0	0	0	36.58326141223382	-9.806735284717305	-9.460603666390163	42.36924122367562	0.7394827609248509	0	0	0	0.4862090821757739	-2.107311917187733	10.78587137004618	100.5714474334198	-27.3267437906469	53.69317109405638	42.62410558770195	37.13218413954895	0	0	0.2786660973300253	-9.729641290385247	5.342371462195347	10.57385304283425	104.1065528654392	0	0
8.759999999999902	1.561545092739953	-1.508094592344563	45.80549230125993	0	0.9399999999999999	0	36.58570378818873	-9.806927586728065	-9.460948658844982	42.37177325390392	0.7395269531890947	0	0	0	36.58570378818873	-9.806927586728065	-9.460948658844982	42.37177325390392	0.7395269531890947	0	0	0	0.4616632256231317	-2.092974116090234	10.78594934283389	100.6330727226603	-27.32898170626309	53.93669497843904	42.59415371439365	37.1328651692155	0	-2.020525954307629e-36	0.3166759889884865	-9.706873910110815	5.283032381407704	10.54977843961237	104.1534082366517	0	-2.020525954307629e-36
8.779999999999902	1.545394383175296	-1.506663548086528	45.78194410759068	0	0.9399999999999999	0	36.58845328742472	-9.807144239268998	-9.461337281412987	42.37461987875281	0.7395766361652769	0	0	0	36.58845328742472	-9.807144239268998	-9.461337281412987	42.37461987875281	0.7395766361652769	0	0	0	0.4514843898571171	-2.080531932238561	10.79508122126024	100.678340002483	-27.34751529935009	54.25786337557925	42.52274460833737	37.13448896921802	0	0	0.3683444437704359	-9.710407933374695	5.244075795900923	10.50740249885762	104.1754412405097	0	0
8.799999999999901	1.517014241209913	-1.515322398473686	45.7478672120748	0	0.9399999999999999	0	36.59292593303096	-9.80749778412468	-9.461970897869852	42.3792324686441	0.7396571410459241	0	0	0	36.59292593303096	-9.80749778412468	-9.461970897869852	42.3792324686441	0.7396571410459241	0	0	0	0.4253664424561748	-2.06633568540683	10.79973366658177	100.8318479937259	-27.31676726172134	54.66593686879078	42.42456748816435	37.15079498604171	0	0	0.3974470374248674	-9.716510657068991	5.208532769622549	10.49486169237277	104.156826873843	0	0
8.819999999999901	1.476435517770317	-1.516488181831011	45.7098367924134	0	0.9399999999999999	0	36.59615279870594	-9.80775239153709	-9.462427574094745	42.38256277068956	0.7397152657817033	0	0	0	36.59615279870594	-9.80775239153709	-9.462427574094745	42.38256277068956	0.7397152657817033	0	0	0	0.3963382474593604	-2.038281029990383	10.81440590864055	100.9320442729316	-27.29070696159607	55.04985352969199	42.41053784100039	37.14291382989477	0	0	0.4362905348719331	-9.695072991553051	5.302791171498196	10.55727090044153	104.0088260262331	0	0
8.8399999999999	1.467454931156014	-1.524987982918251	45.66864904127183	0	0.9399999999999999	0	36.5974043566354	-9.807849744439284	-9.462603069142705	42.3838707833415	0.7397380949091373	0	0	0	36.5974043566354	-9.807849744439284	-9.462603069142705	42.3838707833415	0.7397380949091373	0	0	0	0.3838687145305835	-2.037760324285684	10.81256536165097	100.9874040291221	-27.28060292294348	55.29476789809361	42.4388497048818	37.17401808826296	0	0	0.4241688786963725	-9.748172423654799	5.273144728036409	10.56093653275405	103.9451685552134	0	0
8.8599999999999	1.428881304209171	-1.52421012361804	45.64268454843331	0	0.9399999999999999	0	36.60885854401572	-9.80838832739097	-9.463849769628377	42.39650471184729	0.7399585985590249	0	0	0	36.60885854401572	-9.80838832739097	-9.463849769628377	42.39650471184729	0.7399585985590249	0	0	0	0.3569591524219475	-2.009705214106026	10.79967188474938	101.073128448063	-27.23088589277748	55.37704778809854	42.43865648397912	37.1533962495426	0	0	0.4693588832237994	-9.689467505886427	5.242161678610363	10.56564091195736	103.8828441947053	0	0
